<svg width="30" height="30" viewBox="0 0 30 30" fill="none" xmlns="http://www.w3.org/2000/svg">
<path fill-rule="evenodd" clip-rule="evenodd" d="M15 30C23.2843 30 30 23.2843 30 15C30 6.71573 23.2843 0 15 0C6.71573 0 0 6.71573 0 15C0 23.2843 6.71573 30 15 30ZM17.5231 8C18.8299 8.22904 20.0705 8.62986 21.2352 9.17382H21.2542C23.2902 12.2277 24.294 15.6728 23.9246 19.6524C22.3716 20.8262 20.8565 21.5324 19.3697 22C19.0004 21.4942 18.6784 20.9502 18.3943 20.3872C18.9246 20.1772 19.4455 19.9291 19.9284 19.6333C19.7958 19.5378 19.6727 19.4424 19.5496 19.3374C16.6235 20.7307 13.4132 20.7307 10.4492 19.3374C10.4052 19.3715 10.3612 19.4069 10.3168 19.4426C10.2369 19.5067 10.1556 19.572 10.0704 19.6333C10.5534 19.9291 11.0648 20.1868 11.6045 20.3872C11.3204 20.9502 10.9985 21.4942 10.6291 22C9.1424 21.5324 7.63671 20.8262 6.0742 19.6524C5.7617 16.2263 6.39617 12.743 8.74467 9.17382C9.90945 8.62986 11.15 8.22904 12.4568 8C12.6178 8.2863 12.8072 8.67757 12.9398 8.9925C14.2939 8.78255 15.667 8.78255 17.0496 8.9925C17.1727 8.67757 17.3621 8.2863 17.5231 8ZM10.3829 15.7014C10.3829 16.7226 11.1121 17.5528 12.0023 17.5528C12.9114 17.5528 13.6216 16.713 13.6216 15.7014C13.631 14.6803 12.9114 13.8501 12.0023 13.8501C11.0932 13.8501 10.3829 14.6803 10.3829 15.7014ZM16.3583 15.7014C16.3583 16.7226 17.0875 17.5528 17.9777 17.5528C18.8867 17.5528 19.597 16.713 19.597 15.7014C19.6064 14.6803 18.8867 13.8501 17.9777 13.8501C17.0686 13.8501 16.3583 14.6803 16.3583 15.7014Z" fill="#FF9900"/>
</svg>
