<svg width="56" height="44" viewBox="0 0 56 44" fill="none" xmlns="http://www.w3.org/2000/svg">
<path d="M7.41979 43.4695H48.58C53.2634 43.4695 55.6501 41.1278 55.6501 36.4894V12.9146C55.6501 8.27619 53.2634 5.95699 48.58 5.95699H42.1402C40.3614 5.95699 39.821 5.59673 38.8078 4.47091L37.0065 2.44442C35.8806 1.20601 34.7323 0.530518 32.4131 0.530518H23.429C21.1098 0.530518 19.9615 1.20601 18.8357 2.44442L17.0343 4.47091C16.0211 5.57421 15.4582 5.95699 13.7019 5.95699H7.41979C2.71384 5.95699 0.349609 8.27619 0.349609 12.9146V36.4894C0.349609 41.1278 2.71384 43.4695 7.41979 43.4695ZM7.46482 39.8443C5.25821 39.8443 3.97477 38.651 3.97477 36.3092V13.1172C3.97477 10.7755 5.25821 9.58215 7.46482 9.58215H14.6026C16.629 9.58215 17.7323 9.19937 18.8582 7.93845L20.6145 5.95699C21.8979 4.51594 22.5734 4.15567 24.5548 4.15567H31.2873C33.2687 4.15567 33.9442 4.51594 35.2277 5.95699L36.984 7.93845C38.1098 9.19937 39.2131 9.58215 41.2396 9.58215H48.5124C50.7415 9.58215 52.025 10.7755 52.025 13.1172V36.3092C52.025 38.651 50.7415 39.8443 48.5124 39.8443H7.46482ZM27.9999 36.6019C34.7999 36.6019 40.2714 31.153 40.2714 24.2854C40.2714 17.4404 34.8224 11.9914 27.9999 11.9914C21.1774 11.9914 15.7059 17.4404 15.7059 24.2854C15.7059 31.153 21.1774 36.6019 27.9999 36.6019ZM41.1945 15.9994C41.1945 17.5755 42.5005 18.8139 44.0316 18.8139C45.5402 18.7914 46.8237 17.553 46.8237 15.9994C46.8237 14.5133 45.5402 13.2073 44.0316 13.2073C42.5005 13.2073 41.1945 14.5133 41.1945 15.9994ZM27.9999 33.1794C23.1138 33.1794 19.1059 29.2391 19.1059 24.2854C19.1059 19.3543 23.0913 15.3914 27.9999 15.3914C32.9085 15.3914 36.8714 19.3543 36.8714 24.2854C36.8714 29.2391 32.9085 33.1794 27.9999 33.1794Z" fill="white" fill-opacity="0.7"/>
</svg>
