<svg width="117" height="117" viewBox="0 0 117 117" fill="none" xmlns="http://www.w3.org/2000/svg">
<ellipse cx="58.8953" cy="58.5001" rx="58.0026" ry="58.0684" fill="#FF9900"/>
<path d="M44.7582 54.9904C46.4794 53.2014 48.5437 51.7787 50.8272 50.8074C53.1108 49.8361 55.5667 49.3362 58.0478 49.3378C62.8803 49.3378 67.6882 51.2138 71.3373 54.9904C78.6601 62.519 78.6601 74.7622 71.3373 82.2908C69.6177 84.0819 67.5537 85.506 65.2698 86.4775C62.9859 87.4489 60.5293 87.9476 58.0478 87.9434C53.0426 87.9434 48.3087 85.944 44.7582 82.2908C41.2085 78.6386 39.2339 73.7365 39.26 68.6406C39.26 63.4817 41.2078 58.6437 44.7582 54.9904ZM55.7942 57.1157C55.1571 57.1166 54.5451 57.3644 54.0864 57.807C53.6278 58.2497 53.3581 58.8529 53.3338 59.4902C53.3096 60.1276 53.5327 60.7496 53.9565 61.2259C54.3802 61.7022 54.9717 61.9957 55.6068 62.0451V76.7616C55.6068 77.4163 55.8666 78.0441 56.329 78.5071C56.7914 78.97 57.4185 79.23 58.0724 79.23C58.7263 79.23 59.3535 78.97 59.8159 78.5071C60.2782 78.0441 60.538 77.4163 60.538 76.7616V59.5841C60.538 58.9295 60.2782 58.3016 59.8159 57.8387C59.3535 57.3758 58.7263 57.1157 58.0724 57.1157H55.7942Z" fill="#181818"/>
<path d="M52.0268 27.2211L58.0675 37.1613L64.1082 27.2211C64.9465 25.7894 66.4505 24.9255 68.1025 24.9255H84.3507C87.9258 24.9255 90.1695 28.7762 88.4436 31.8863C85.1967 37.6543 80.6031 42.5495 75.0554 46.1536C74.1706 46.8337 73.1869 47.374 72.1386 47.7556C78.5837 52.3419 82.8023 59.984 82.8023 68.6406C82.8023 82.6685 71.7195 94.0404 58.0478 94.0404C44.3761 94.0404 33.2932 82.6685 33.2932 68.6406C33.2932 59.9766 37.5217 52.3246 43.9742 47.7433C42.9412 47.3651 41.973 46.8288 41.1042 46.1536C35.5619 42.5431 30.9697 37.6493 27.7161 31.8863C25.9655 28.7762 28.2092 24.9255 31.7843 24.9255H48.0325C49.6845 24.9255 51.1885 25.7894 52.0268 27.2211ZM57.2514 43.2533C61.3633 43.1131 65.4429 44.0265 69.1035 45.9068C70.7228 45.7823 72.2705 45.1869 73.5563 44.1937L73.6303 44.1345L73.7141 44.0851C78.9253 40.6987 83.2404 36.1 86.2911 30.6818C86.4758 30.3439 86.5695 29.9638 86.5632 29.5788C86.5568 29.1937 86.4506 28.8169 86.2549 28.4853C86.0592 28.1538 85.7808 27.8788 85.447 27.6875C85.1132 27.4961 84.7354 27.395 84.3507 27.3939H68.1025C67.7237 27.3916 67.3511 27.4901 67.0227 27.6791C66.6944 27.8682 66.422 28.1412 66.2335 28.4701L66.2237 28.4874L57.2514 43.2533ZM42.6871 84.4383C44.6784 86.511 47.068 88.159 49.712 89.2832C52.356 90.4073 55.1999 90.9843 58.0724 90.9796C63.8666 90.9796 69.3402 88.6593 73.4824 84.4383C81.964 75.7249 81.964 61.5564 73.4824 52.843C71.4845 50.7759 69.0919 49.1323 66.4467 48.0098C63.8015 46.8872 60.9578 46.3088 58.0848 46.3088C55.2117 46.3088 52.368 46.8872 49.7229 48.0098C47.0777 49.1323 44.685 50.7759 42.6871 52.843C38.5679 57.0643 36.2739 62.7393 36.3013 68.6406C36.3013 74.6142 38.5696 80.2174 42.6871 84.4383Z" fill="#181818"/>
</svg>
