<svg width="117" height="117" viewBox="0 0 117 117" fill="none" xmlns="http://www.w3.org/2000/svg">
<ellipse cx="58.5072" cy="58.5001" rx="58.0026" ry="58.0684" fill="#FF9900"/>
<path d="M54.3894 31.3962C47.6085 31.3962 42.9087 33.9259 39.6193 37.7341C36.431 41.4228 34.6761 46.1877 33.3805 50.4697L32.1952 54.3837H24.0545C23.4452 54.3837 22.861 54.626 22.4302 55.0572C21.9994 55.4885 21.7574 56.0734 21.7574 56.6833C21.7574 61.6322 24.0407 66.3511 27.716 68.7796L25.69 73.7101C25.3123 74.6258 25.1659 75.6206 25.2639 76.6065C25.362 77.5924 25.7013 78.5388 26.2519 79.3621C26.8026 80.1853 27.5474 80.8599 28.4207 81.3261C29.2939 81.7923 30.2684 82.0357 31.258 82.0348H37.9746C40.3084 82.0348 42.4309 80.6826 43.4233 78.5715L45.5825 73.9722C51.6192 74.8093 57.7339 74.8093 63.7706 73.9722L65.9298 78.5715C66.9221 80.6872 69.0446 82.0348 71.3784 82.0348H78.0307C79.0203 82.0357 79.9949 81.7923 80.8681 81.3261C81.7413 80.8599 82.4862 80.1853 83.0368 79.3621C83.5874 78.5388 83.9268 77.5924 84.0248 76.6065C84.1228 75.6206 83.9765 74.6258 83.5988 73.7101L81.3109 68.1633H89.1347C92.2357 68.1633 95.2632 65.767 95.2632 62.3819V58.983C95.2632 53.7536 90.7243 49.8027 85.5191 49.8027H75.9863C74.6724 45.6312 72.7429 41.1744 69.5178 37.6789C66.0355 33.9121 61.1657 31.3962 54.3894 31.3962ZM79.974 63.5685L77.3278 54.3975H85.5191C88.5375 54.3975 90.6691 56.6282 90.6691 58.9784V62.3865C90.6691 62.8004 90.15 63.5685 89.1347 63.5685H79.974ZM68.4566 73.1535C71.4565 72.5188 74.4289 71.668 77.3508 70.6147L79.3492 75.467C79.4393 75.6839 79.4744 75.9198 79.4515 76.1536C79.4286 76.3874 79.3484 76.6119 79.2179 76.8071C79.0874 77.0024 78.9108 77.1623 78.7036 77.2728C78.4965 77.3832 78.2654 77.4407 78.0307 77.4401H71.3784C71.1073 77.4401 70.8418 77.3627 70.6131 77.2169C70.3844 77.071 70.2021 76.8628 70.0875 76.6168L68.4612 73.1535H68.4566ZM31.938 70.5963C34.8782 71.6634 37.8736 72.5188 40.8965 73.1581L39.2656 76.6168C39.1513 76.8621 38.9697 77.0698 38.7419 77.2156C38.5141 77.3614 38.2496 77.4393 37.9792 77.4401H31.2534C31.0188 77.4407 30.7876 77.3832 30.5805 77.2728C30.3734 77.1623 30.1968 77.0024 30.0663 76.8071C29.9358 76.6119 29.8555 76.3874 29.8326 76.1536C29.8097 75.9198 29.8449 75.6839 29.9349 75.467L31.938 70.5963ZM30.8078 58.9876L29.255 64.1205C27.8421 62.7327 26.9004 60.9356 26.5629 58.983H30.8078V58.9876Z" fill="#181818"/>
</svg>
