<svg width="23" height="25" viewBox="0 0 23 25" fill="none" xmlns="http://www.w3.org/2000/svg">
<path fill-rule="evenodd" clip-rule="evenodd" d="M20.1071 13.631C20.1506 13.2685 20.1796 12.8915 20.1796 12.5C20.1796 12.1085 20.1506 11.7315 20.0926 11.369L22.5431 9.45499C22.7606 9.28099 22.8186 8.96199 22.6881 8.71549L20.3681 4.69899C20.2231 4.43799 19.9186 4.35099 19.6576 4.43799L16.7721 5.59799C16.1631 5.13399 15.5251 4.75699 14.8146 4.46699L14.3796 1.39299C14.3361 1.10299 14.0896 0.899994 13.7996 0.899994H9.1596C8.8696 0.899994 8.6376 1.10299 8.5941 1.39299L8.1591 4.46699C7.4486 4.75699 6.7961 5.14849 6.2016 5.59799L3.3161 4.43799C3.0551 4.33649 2.7506 4.43799 2.6056 4.69899L0.285601 8.71549C0.140601 8.97649 0.198601 9.28099 0.430601 9.45499L2.8811 11.369C2.8231 11.7315 2.7796 12.123 2.7796 12.5C2.7796 12.877 2.8086 13.2685 2.8666 13.631L0.416101 15.545C0.198601 15.719 0.140601 16.038 0.271101 16.2845L2.5911 20.301C2.7361 20.562 3.0406 20.649 3.3016 20.562L6.1871 19.402C6.7961 19.866 7.4341 20.243 8.1446 20.533L8.5796 23.607C8.6376 23.897 8.8696 24.1 9.1596 24.1H13.7996C14.0896 24.1 14.3361 23.897 14.3651 23.607L14.8001 20.533C15.5106 20.243 16.1631 19.8515 16.7576 19.402L19.6431 20.562C19.9041 20.6635 20.2086 20.562 20.3536 20.301L22.6736 16.2845C22.8186 16.0235 22.7606 15.719 22.5286 15.545L20.1071 13.631ZM11.4796 16.85C9.0871 16.85 7.1296 14.8925 7.1296 12.5C7.1296 10.1075 9.0871 8.14999 11.4796 8.14999C13.8721 8.14999 15.8296 10.1075 15.8296 12.5C15.8296 14.8925 13.8721 16.85 11.4796 16.85Z" fill="#FF9900"/>
</svg>
