<svg width="49" height="49" viewBox="0 0 49 49" fill="none" xmlns="http://www.w3.org/2000/svg">
<path d="M11.6397 20.1343C11.3354 19.8454 11.0931 19.493 10.9301 19.104C10.7065 19.0342 10.4735 18.9992 10.2406 18.9992C9.92229 19.0294 9.79495 19.058 9.54184 19.1675C9.55581 19.3501 9.63812 19.6057 9.81669 20.0343C9.26854 19.9994 8.71573 19.0881 8.66138 18.8135C8.96573 18.6579 9.28717 18.5452 9.62103 18.4769C10.5714 18.2849 11.3618 18.5182 11.7609 18.6706C11.5667 19.131 11.5248 19.6454 11.6397 20.1343Z" fill="white"/>
<path d="M13.4601 18.7151C13.4305 18.5834 13.3995 18.45 13.37 18.3183C13.1262 18.7104 12.8389 19.0199 12.1665 19.3184C13.8855 19.374 14.4849 18.7675 14.8452 18.0357C14.3716 18.3389 14.0377 18.5183 13.4601 18.7151Z" fill="white"/>
<path d="M18.594 18.6341C17.8285 18.6786 16.6483 18.2976 16.3626 18.5405C16.799 16.7958 19.5506 18.0023 20.1314 16.3148C19.9621 17.1403 20.1314 17.5403 18.7136 18.1785C18.7136 18.1785 19.0972 18.4373 19.2338 18.4357L18.594 18.6341Z" fill="white"/>
<path d="M10.1245 16.8515C10.4848 17.1405 11.3124 16.9277 11.4429 16.8436C11.1509 17.4103 10.4289 17.6056 10.1245 16.8515Z" fill="white"/>
<path d="M16.9962 15.5244C16.976 15.3434 16.8316 15.2021 16.653 15.1926C16.4822 15.3497 16.2493 15.5244 16.0738 15.3815C16.139 15.1688 16.6996 14.8259 17.1173 14.5941C17.1748 14.7258 17.1996 14.8687 17.1918 15.0116C17.1779 15.1989 17.1111 15.3783 16.9962 15.5244Z" fill="white"/>
<path d="M26.2604 8.95518C23.883 9.06314 22.1267 10.1077 21.0739 12.2096C21.5118 11.7921 21.9668 11.4174 22.473 11.1713C22.1345 11.6603 21.827 12.3239 21.7463 12.897C21.8659 13.4589 22.3504 13.9146 22.4606 13.9908C22.7681 12.0762 23.5709 10.5268 26.2604 8.95518Z" fill="white"/>
<path d="M19.0806 9.82511C18.4222 10.2363 17.7452 10.8157 17.0588 11.9952C17.8182 9.36791 20.0682 6.68343 23.4519 5.92778C21.1382 7.33907 20.0853 9.44411 20.2235 10.8744C20.0123 11.2205 19.1257 11.6412 18.4673 11.9682C18.5775 11.1062 18.8042 10.3807 19.0806 9.82511Z" fill="white"/>
<path d="M8.89968 27.2559C8.12171 26.3494 7.65585 23.9269 8.07667 21.9917C8.20556 23.1141 8.52545 24.3381 9.68697 25.3858C11.2057 25.1699 11.406 25.5255 11.3516 25.5255C9.92301 26.1145 9.69163 26.578 8.89968 27.2559Z" fill="white"/>
<path d="M12.729 47.1252C14.9309 44.2915 16.2539 40.8498 16.5303 37.2414C16.5303 37.2414 14.4215 38.84 12.6653 40.2973C13.8113 38.2764 15.0241 35.6539 15.7958 32.5376C16.4045 30.077 16.5955 27.8862 16.5971 26.0685C16.8968 26.613 17.2881 27.3671 17.6887 28.2847C18.0474 29.1038 18.8145 30.8612 19.1546 32.6694C19.7105 35.6189 19.0118 38.0955 18.7447 39.0146C17.3611 43.7692 13.8749 46.3473 12.729 47.1252Z" fill="white"/>
<path d="M21.8888 27.5862L20.2117 27.5799C20.2645 26.5369 20.4912 25.5113 20.881 24.5461C21.749 25.2859 22.1372 26.4591 21.8888 27.5862Z" fill="white"/>
<path d="M25.9275 31.2373C26.0191 30.723 26.1185 29.0497 26.1122 28.8259L26.5331 27.4416C26.6262 28.756 26.4057 30.0165 25.9275 31.2373Z" fill="white"/>
<path d="M22.7708 31.793L20.6248 31.1294C20.749 30.4055 20.7708 29.8626 20.7522 29.2212L21.173 29.7498L22.3065 28.2258C22.9603 29.291 23.128 30.5928 22.7708 31.793Z" fill="white"/>
<path d="M24.0013 36.5078C22.8553 36.4094 21.745 36.0586 20.745 35.4791C20.9422 34.9505 21.0105 34.506 21.0198 33.9218C21.0198 33.9218 21.7295 34.4457 21.8894 34.4076C21.9888 34.2234 22.1037 34.0313 22.2342 33.8377C22.6364 33.2408 23.124 32.7121 23.683 32.266C24.1675 33.6233 24.2793 35.0902 24.0013 36.5078Z" fill="white"/>
<path d="M44.0858 28.4785C43.9414 28.3769 43.6541 26.764 43.6541 26.764C43.5268 27.9578 43.2302 29.1262 42.7721 30.2311C41.463 33.3776 39.1835 35.1476 38.0514 35.9049C37.5763 33.5824 37.7657 31.1678 38.5965 28.9532C38.5623 29.7327 38.8263 30.4962 39.3325 31.0804C41.0888 27.5149 42.0624 23.6001 42.1851 19.6107C42.7364 20.1711 43.7364 21.3411 44.2644 23.1397C45.0004 25.6417 44.3467 27.753 44.0858 28.4785Z" fill="white"/>
<path d="M33.8063 8.81518C33.4321 10.1614 33.5873 10.7011 33.4911 11.3679C33.4911 11.3679 32.9383 10.9329 32.7084 9.20729L33.0656 9.76768C33.2612 8.6088 33.0206 7.84203 33.3808 7.36896C36.0657 8.00079 38.5533 11.2822 36.0843 18.6037C36.0377 17.5576 37.721 10.9472 33.8063 8.81518Z" fill="white"/>
<path d="M32.886 3.97515C31.5692 5.25151 31.4357 6.16273 31.0754 7.86137C30.7648 6.67391 30.7602 5.45312 31.1981 3.77989C32.4357 3.51636 32.7789 3.83228 32.886 3.97515Z" fill="white"/>
<path d="M23.3374 23.7602C19.1804 24.7349 18.5966 21.7679 17.6711 22.4346C17.2456 22.7363 18.1245 23.2903 18.1245 23.2903C17.9879 23.4681 15.508 23.8031 15.6275 22.1537C15.7626 21.4536 16.3403 21.0932 17.2875 21.017C19.9165 21.098 19.8311 23.6475 23.3374 23.7602Z" fill="white"/>
<path d="M17.9724 18.9423C15.0438 19.3217 15.3854 23.2412 12.1275 22.3221C12.0545 22.3871 11.9443 22.6777 11.9955 23.1317C11.8698 23.0602 11.3589 22.8682 11.1679 21.9442C10.9396 22.5427 10.8294 23.2253 11.5157 23.8556C11.2968 23.8842 10.3915 23.6921 10.1119 22.7713C10.1119 22.7713 9.96131 22.9729 9.79671 23.1079C9.63832 22.8412 9.53583 22.3316 9.64609 22.0284C9.79205 22.0712 10.1259 21.9728 10.1259 21.9728C8.87588 21.4918 8.9178 20.6631 8.88519 20.1027C10.0622 20.7345 10.6616 20.8234 10.6616 20.8234C10.6616 20.8234 10.511 20.5456 10.3557 20.225C11.7331 20.7949 13.0033 21.0425 14.6136 19.7709C16.6603 18.2168 17.9926 16.0625 18.1262 15.6339C18.1262 15.6339 17.6417 15.7736 17.3032 15.7593C17.5097 15.2592 17.623 15.1132 17.7147 14.4544C17.7147 14.4544 17.929 14.8004 17.9616 14.9782C18.0019 14.8068 18.1215 14.4179 18.1262 14.0194C17.6324 13.9813 17.2069 14.1083 16.2332 14.7909C16.2643 14.5893 16.3202 14.3909 16.3978 14.202C15.4382 14.9735 15.7193 15.6402 14.0655 15.7022C13.7099 15.7244 11.8635 15.6879 11.1027 14.783C12.289 14.3686 15.1633 13.3733 15.7814 11.354C15.9118 12.0477 15.7752 12.9526 15.3699 13.8225C15.7953 13.3876 16.3994 12.897 16.564 12.0969C17.0718 12.6303 17.2022 12.8621 18.4445 13.1352C18.4538 13.1225 18.1976 12.8685 18.0609 12.6446C18.5408 12.5811 19.2753 12.5668 19.7753 12.3081C19.7473 12.9177 20.0424 13.5908 20.2831 13.8225C20.2831 13.8225 20.0362 12.6938 20.4477 11.9572C20.4958 12.7923 20.7489 13.5781 21.3126 13.9067L21.4151 13.4019C21.6822 14.0337 22.2179 14.4687 22.2179 14.4687C20.9151 14.4972 19.6588 15.0164 19.3498 16.1721C23.8298 15.5894 24.5161 13.9908 24.8655 11.7334C25.0503 13.059 25.2366 15.2735 23.4943 16.18C23.8996 16.2149 24.2723 16.0546 24.8795 15.8577C23.4245 17.885 22.4648 16.0546 21.5595 17.6818C22.2738 18.0675 22.4648 18.2564 22.4648 18.2564C22.4648 18.2564 21.4912 18.2501 21.0797 18.5787C21.0455 18.9232 21.6899 19.6519 22.4928 20.29C19.6324 20.3377 19.8514 19.4185 17.9724 18.9423Z" fill="white"/>
<path d="M28.0614 13.4256C27.1607 13.4685 26.7973 13.4733 26.1669 13.0351C25.9961 12.9049 25.92 12.5874 25.8346 12.235C25.7694 11.8604 25.892 11.5556 25.7631 11.3158C25.611 11.0476 25.3998 10.8174 25.1482 10.6443C25.3625 10.5888 25.9945 10.457 26.3921 10.8126C26.6234 11.019 26.8036 11.3111 26.8362 11.8461C26.9045 12.9621 27.1017 12.7986 28.0614 13.4256Z" fill="white"/>
<path d="M7.96637 41.2278C8.85615 43.2868 10.0037 44.7807 10.673 45.5728C9.45244 44.7838 8.31887 43.8615 7.29554 42.8201C6.50359 42.0136 4.89174 40.2372 3.76593 37.9417C3.49884 37.3988 3.26591 36.84 3.06715 36.2669C2.07022 33.4094 2.0547 30.6503 2.23172 28.7373C2.29073 28.1007 2.37148 27.5578 2.44291 27.1355C1.38697 28.0007 0.567071 29.1294 0.0639496 30.4121C-0.32892 26.8006 1.16647 23.4763 3.42275 19.906C4.38551 18.3836 4.62465 17.4581 4.90572 16.5596C5.56878 14.4561 5.59673 12.5829 5.51443 11.3256C5.59984 11.7526 5.68524 12.1796 5.77065 12.6067C6.46477 16.0738 5.29393 17.2644 5.2225 21.1538C5.16815 24.0558 5.68835 26.1576 5.97407 27.1466C6.16352 27.7975 6.35297 28.3278 6.49272 28.6881C6.60297 27.7832 6.72875 26.999 7.19771 26.3338C7.19771 26.3338 7.29399 28.3849 8.57819 29.9375C9.131 28.8675 10.8826 27.7166 11.4044 27.4165C9.83134 29.9137 8.48657 33.0172 9.07976 37.313C7.46325 35.4128 7.27225 33.3744 7.12318 31.7028C6.81261 32.9744 6.6713 34.2841 6.70391 35.5954C6.75515 37.602 7.21324 39.3752 7.8204 40.8722C7.86699 40.996 7.91668 41.1135 7.96637 41.2278Z" fill="white"/>
<path d="M21.8896 27.5862C21.9657 26.2495 21.2824 25.1732 20.8818 24.5461C22.065 24.6938 22.6722 25.5209 22.9781 26.1876C22.9781 26.1876 22.3508 27.3084 21.8896 27.5862Z" fill="white"/>
<path d="M23.7997 28.8912C23.7951 28.9626 23.7966 29.0325 23.8044 29.1039C23.8339 29.2944 24.2795 29.8262 24.2935 30.0691C24.323 30.3723 23.1537 31.6852 22.7717 31.7931C22.7671 30.6343 22.9953 30.2263 22.309 28.2276C23.514 27.3656 24.7143 25.8241 25.3914 23.7207C25.4985 25.7638 24.8852 27.445 23.7997 28.8912Z" fill="white"/>
<path d="M25.6005 34.9043C25.0958 35.4679 24.5616 36.0029 23.9995 36.5077C24.1548 35.0409 24.0958 33.6185 23.6796 32.2675C24.1827 31.8627 24.6346 31.3975 25.0259 30.88C26.0089 29.5799 26.3785 28.2511 26.5338 27.4431C26.5136 28.0304 26.4918 28.6178 26.4716 29.2052C26.2605 30.6038 25.7247 31.9309 24.9064 33.0724C25.1657 33.4819 25.4825 34.0995 25.6005 34.9043Z" fill="white"/>
<path d="M48.4222 22.649C47.7265 21.0488 46.2187 18.1897 43.2108 15.7878C41.7543 14.6274 40.1269 13.713 38.3877 13.0796C39.1703 16.3197 38.1501 20.0503 35.3115 25.1065H35.3131C35.9544 24.7065 36.664 24.435 37.4048 24.3064C34.8752 26.7496 34.3348 29.3658 34.4186 33.8584C33.9155 33.2996 33.1888 31.5534 33.1888 31.5534C33.035 32.2265 32.9683 32.9155 32.9931 33.606C33.0739 35.8111 34.0584 36.6985 34.2727 38.6178C34.4202 39.9338 34.1143 40.9197 33.7183 42.1944C32.8611 44.9551 31.2322 46.8125 30.1607 47.8285C31.7897 44.1756 32.1748 40.0719 31.2555 36.1682C30.8595 34.8189 30.2492 32.3598 30.726 29.3451C31.0847 27.0782 31.8797 24.9255 32.8208 23.2063C32.9388 23.0412 33.0506 25.0001 33.2059 25.0017C33.6795 23.8619 35.4295 18.9136 33.9466 14.2861C33.226 12.7906 32.4046 10.4586 32.6717 7.68204C32.7136 7.23754 32.7835 6.7978 32.8767 6.36124C33.768 7.18515 35.1857 8.26307 37.1408 8.80917C38.633 9.2251 39.2076 8.98856 40.4452 9.30923C43.1161 10.003 44.7388 12.2271 45.7016 13.559C48.2855 17.1388 48.4455 21.0615 48.4222 22.649Z" fill="white"/>
<path d="M31.3083 6.75967C31.2306 7.12639 31.153 7.4931 31.0753 7.8614C30.9045 7.00256 30.6933 5.32933 31.2539 3.37035C31.5785 2.24163 32.1095 1.18594 32.8176 0.258835C33.5661 3.07825 34.5118 5.38489 37.9855 7.02955C36.6997 6.99304 33.8052 6.61362 32.9093 3.92439C32.1654 4.72608 31.5319 5.65159 31.3083 6.75967Z" fill="white"/>
<path d="M30.9116 22.9143C30.2159 24.4939 29.1227 25.4115 28.5575 25.8242C29.1833 23.8033 29.2066 21.6364 28.6258 19.6012C28.5 19.9616 28.4379 20.4632 28.0901 21.1093C27.7531 19.0091 26.9549 17.5311 25.7437 16.1023C26.5326 16.0817 27.3214 16.1166 28.1056 16.2055L26.5217 14.7863C27.1475 14.9371 28.1925 15.2752 29.2361 16.0976C29.8572 16.5865 31.0234 17.5073 31.4302 19.1424C31.8448 20.7982 31.233 22.1841 30.9116 22.9143Z" fill="white"/>
<path d="M15.7974 23.5951C15.1871 24.1634 14.4961 23.9237 14.3501 23.7666C14.2523 23.6618 14.2383 23.538 14.0923 23.3268C14.0085 23.2046 13.8579 23.0744 13.5411 22.9395C15.184 22.5791 14.67 23.6904 15.7974 23.5951Z" fill="white"/>
<path d="M24.7433 23.0583C24.3256 22.3186 23.7619 21.9566 23.324 21.9439C23.265 22.1058 23.1749 22.4884 23.001 22.7916C22.428 22.7361 22.178 22.6234 21.7867 22.3217C22.0305 21.8645 23.1361 20.585 23.4405 20.4009C24.1796 21.101 24.7619 21.8963 24.7433 23.0583Z" fill="white"/>
<path d="M3.96405 8.19952C3.87399 8.7234 3.81342 9.25362 3.78547 9.78385C3.70473 11.2777 3.87864 12.7366 3.81498 12.7414H3.81342C2.95315 11.6571 0.630095 8.11379 1.41118 2.8528C4.99203 6.03734 8.7701 9.19806 13.7873 10.9602C12.1693 10.957 10.5574 10.7475 8.9906 10.3347C7.22502 9.86799 5.53242 9.14885 3.96405 8.19952Z" fill="white"/>
<path d="M20.3503 21.3454C19.1453 20.2468 18.3766 19.9801 16.6732 20.5977C16.8704 19.7039 17.8533 19.3213 18.594 19.307C17.4185 19.0736 17.1763 19.2689 16.3626 19.6436C14.2818 20.1341 14.3641 22.3201 12.1187 21.3644C12.0659 21.4216 11.8687 21.5486 11.6621 21.6264C11.5659 21.439 11.4603 21.0676 11.3516 20.9152C11.2165 20.9787 10.9308 21.2628 10.5472 21.4581C10.3189 21.5438 9.30338 21.3724 9.11082 20.4468C9.56425 20.6358 10.277 20.7659 10.7025 20.8358C10.5239 20.5723 10.4354 20.4992 10.4416 20.2468C12.1296 21.0009 13.288 20.8072 14.5986 19.7833C14.2321 19.9134 13.5069 20.0246 13.0892 19.9372C14.965 19.1102 15.9294 17.7846 16.2446 17.0051C14.9138 18.4752 13.5054 16.921 12.1839 17.3972C12.5069 17.4496 13.069 17.4496 13.2911 17.8275C13.1591 17.983 12.9572 18.0322 12.8159 18.1084C11.7087 18.3466 10.4509 17.094 8.38875 18.0338C7.98035 17.7084 7.99743 17.5004 8.0052 17.4544C8.9338 17.4115 9.09529 16.8178 9.08442 16.7813C8.86082 17.0337 8.12477 17.1607 7.85923 16.8559C7.80799 16.7956 7.85923 16.2574 7.85923 16.2574C8.18843 15.6303 11.5503 16.1971 11.7056 16.4162C11.746 16.4384 11.1528 16.2003 11.1575 16.051C11.1714 15.9066 11.1994 15.724 11.35 15.5462C11.583 15.5383 12.3423 15.5843 12.6808 15.5748C12.6451 15.4573 12.5209 15.3144 12.5442 15.0985C13.1203 15.0652 13.833 14.6318 14.6017 14.454C14.5644 14.6969 14.3113 14.962 14.4262 15.1319C14.5427 15.1144 14.7663 15.1319 15.316 15.0398C15.0737 15.3557 14.6296 15.5891 14.0644 15.7081C14.2942 15.9034 14.8983 15.9399 15.2741 15.9542C15.2321 16.1685 15.1064 16.3288 15.0955 16.4876C15.8502 15.67 16.5629 16.286 17.7167 16.0383C18.3658 15.1541 18.6841 14.2429 19.4046 14.2429C19.2028 14.5334 18.9559 15.7907 19.1298 16.5019C20.7696 13.7809 23.9048 17.0273 24.8008 11.6965C24.8473 11.8822 24.8846 12.503 24.9188 12.6315L24.7542 12.6173C24.3566 16.4812 20.7199 15.6938 20.1686 16.5098C20.1251 16.4828 20.1888 16.2463 20.136 16.3161C19.3969 18.2005 16.9962 16.667 16.3673 18.5418C16.8455 18.3339 17.6344 18.6799 18.5987 18.6355C19.6096 18.2989 19.8503 18.3053 20.5382 18.0561C20.2649 18.645 20.1376 18.6434 19.7882 19.0292C20.2369 19.4038 20.7152 19.7404 21.2152 20.0388C20.914 20.0627 20.6189 20.0738 20.2633 19.9642C20.3472 20.3167 20.4279 20.8421 20.3503 21.3454Z" fill="white"/>
<path d="M22.6095 9.50299C22.566 9.50299 21.2368 9.4252 21.257 9.63634C20.9945 9.58713 20.9091 9.20613 21.1824 8.93466C21.9185 9.02991 22.3548 9.23311 22.6095 9.50299Z" fill="white"/>
<path d="M48.7166 25.3018C48.6529 27.5466 48.2337 31.8249 45.7786 36.4144C42.8608 41.869 38.693 44.7234 36.769 45.8743C37.0563 44.3916 37.4367 42.7787 37.9445 41.0689C38.4026 39.5227 38.9042 38.1019 39.4135 36.8144C39.3281 37.5875 39.3933 38.3702 39.6092 39.1163C39.7474 39.591 39.9446 40.045 40.1961 40.4673C41.749 38.8591 43.1434 37.0986 44.3578 35.211C46.746 31.4994 48.0132 27.9466 48.7166 25.3018Z" fill="white"/>
<path d="M23.7785 42.2819C22.6574 42.0263 21.603 41.5246 20.6884 40.8134C20.721 40.634 20.752 40.4515 20.7831 40.2689C20.8545 39.845 20.9197 39.4291 20.9787 39.0179C21.1806 39.4355 21.5331 39.7561 21.9617 39.9117C22.0859 39.7418 22.2241 39.5688 22.3778 39.3942C22.8546 38.8592 23.4089 38.402 24.0208 38.0369C24.3251 39.4466 24.2397 40.9166 23.7785 42.2819Z" fill="white"/>
<path d="M25.5772 40.9136C25.0027 41.4025 24.4017 41.8597 23.779 42.282C24.1269 40.8501 24.2557 39.4324 24.0213 38.0354C24.3412 37.9259 24.6517 37.7862 24.9452 37.6148C25.5524 37.2591 26.0834 36.7829 26.5089 36.213C26.6378 37.1052 26.7046 38.5768 26.0229 40.0913C25.894 40.377 25.7449 40.6516 25.5772 40.9136Z" fill="white"/>
<path d="M22.2054 48.9572C20.8622 48.8984 19.5516 48.5111 18.3838 47.8269C19.5019 46.7061 20.1665 45.1964 20.2441 43.5977C20.5454 43.8581 20.8746 44.0851 21.224 44.274C22.1169 44.7566 22.96 44.8852 23.5067 44.9186C23.4445 46.36 22.9942 47.7586 22.2054 48.9572Z" fill="white"/>
<path d="M23.8422 48.8777C23.3018 48.9697 22.7521 48.9967 22.204 48.957C22.8997 47.6648 23.381 46.3281 23.5053 44.9168C24.5379 44.8105 25.524 44.4279 26.3656 43.8088C26.5349 44.4295 26.6901 45.3883 26.437 46.4742C26.2973 47.0743 26.1265 47.7998 25.5069 48.3014C25.0519 48.6713 24.5534 48.7554 23.8422 48.8777Z" fill="white"/>
</svg>
