<svg width="21" height="21" viewBox="0 0 21 21" fill="none" xmlns="http://www.w3.org/2000/svg">
<path d="M9.69767 20.543H11.5979C12.3222 20.543 12.8773 20.1006 13.0466 19.404L13.4511 17.6437L13.7521 17.5402L15.2855 18.4815C15.8969 18.8675 16.6025 18.7733 17.1199 18.2556L18.4369 16.9472C18.9542 16.4294 19.0483 15.714 18.6626 15.1116L17.7031 13.5866L17.816 13.3042L19.5751 12.89C20.2618 12.7206 20.7134 12.1558 20.7134 11.4404V9.57655C20.7134 8.86114 20.2712 8.29634 19.5751 8.1269L17.8348 7.70331L17.7125 7.40208L18.672 5.87713C19.0577 5.27468 18.9636 4.56868 18.4463 4.04154L17.1293 2.72368C16.6213 2.21536 15.9158 2.12123 15.3043 2.49776L13.7709 3.43909L13.4511 3.31671L13.0466 1.55643C12.8773 0.859844 12.3222 0.417419 11.5979 0.417419H9.69767C8.97333 0.417419 8.41831 0.859844 8.24898 1.55643L7.83507 3.31671L7.51523 3.43909L5.99128 2.49776C5.37982 2.12123 4.66489 2.21536 4.1569 2.72368L2.84932 4.04154C2.33193 4.56868 2.22845 5.27468 2.62355 5.87713L3.57367 7.40208L3.46078 7.70331L1.72047 8.1269C1.02435 8.29634 0.582214 8.86114 0.582214 9.57655V11.4404C0.582214 12.1558 1.03375 12.7206 1.72047 12.89L3.47959 13.3042L3.58307 13.5866L2.63296 15.1116C2.23786 15.714 2.34134 16.4294 2.85873 16.9472L4.16631 18.2556C4.6837 18.7733 5.39864 18.8675 6.0101 18.4815L7.53405 17.5402L7.83507 17.6437L8.24898 19.404C8.41831 20.1006 8.97333 20.543 9.69767 20.543ZM9.84819 19.0746C9.68827 19.0746 9.6036 19.0087 9.57538 18.8581L9.01096 16.5236C8.43713 16.3824 7.90092 16.1564 7.49642 15.9023L5.44567 17.1637C5.33279 17.2484 5.2105 17.2296 5.09761 17.1166L3.98758 16.0058C3.8841 15.9023 3.87469 15.7893 3.94995 15.6575L5.2105 13.6243C4.99413 13.2289 4.74955 12.6924 4.59904 12.1181L2.26608 11.5628C2.11557 11.5345 2.04972 11.4498 2.04972 11.2898V9.71775C2.04972 9.54831 2.10616 9.47301 2.26608 9.44477L4.58963 8.87997C4.74014 8.2681 5.02236 7.71272 5.19168 7.36443L3.94054 5.33116C3.85588 5.18996 3.86528 5.077 3.96876 4.96404L5.08821 3.8721C5.20109 3.75914 5.30457 3.74031 5.44567 3.82503L7.4776 5.05817C7.88211 4.83225 8.45594 4.59692 9.02036 4.43689L9.57538 2.1024C9.6036 1.95179 9.68827 1.88589 9.84819 1.88589H11.4474C11.6073 1.88589 11.692 1.95179 11.7108 2.1024L12.2846 4.45572C12.8679 4.60633 13.3758 4.84167 13.7992 5.06759L15.8405 3.82503C15.991 3.74031 16.0851 3.75914 16.2074 3.8721L17.3174 4.96404C17.4303 5.077 17.4303 5.18996 17.3456 5.33116L16.0945 7.36443C16.2732 7.71272 16.546 8.2681 16.6965 8.87997L19.0295 9.44477C19.18 9.47301 19.2459 9.54831 19.2459 9.71775V11.2898C19.2459 11.4498 19.1706 11.5345 19.0295 11.5628L16.6871 12.1181C16.5366 12.6924 16.3014 13.2289 16.0757 13.6243L17.3362 15.6575C17.4115 15.7893 17.4115 15.9023 17.2986 16.0058L16.198 17.1166C16.0757 17.2296 15.9628 17.2484 15.8405 17.1637L13.7898 15.9023C13.3852 16.1564 12.8585 16.3824 12.2846 16.5236L11.7108 18.8581C11.692 19.0087 11.6073 19.0746 11.4474 19.0746H9.84819ZM10.6478 14.0761C12.6139 14.0761 14.2319 12.457 14.2319 10.4802C14.2319 8.52226 12.6139 6.90318 10.6478 6.90318C8.68171 6.90318 7.05428 8.52226 7.05428 10.4802C7.05428 12.4476 8.6723 14.0761 10.6478 14.0761ZM10.6478 12.617C9.48131 12.617 8.52179 11.6569 8.52179 10.4802C8.52179 9.32239 9.48131 8.36224 10.6478 8.36224C11.7955 8.36224 12.755 9.32239 12.755 10.4802C12.755 11.6475 11.7955 12.617 10.6478 12.617Z" fill="white"/>
</svg>
