<svg width="30" height="30" viewBox="0 0 30 30" fill="none" xmlns="http://www.w3.org/2000/svg">
<path fill-rule="evenodd" clip-rule="evenodd" d="M15 30C23.2843 30 30 23.2843 30 15C30 6.71573 23.2843 0 15 0C6.71573 0 0 6.71573 0 15C0 23.2843 6.71573 30 15 30ZM23.6573 10C24.3112 10 24.4486 10.3307 24.3112 10.7807C24.0363 12.0182 21.4018 15.6633 21.4018 15.6633C21.1728 16.0233 21.0812 16.2033 21.4018 16.6082C21.5148 16.7636 21.7558 16.9954 22.0315 17.2607C22.3151 17.5335 22.6354 17.8417 22.8909 18.1384C23.8197 19.1647 24.5196 20.0305 24.7147 20.6272C24.8929 21.226 24.584 21.5294 23.9662 21.5294H21.8039C21.2248 21.5294 20.9331 21.2108 20.303 20.5223C20.0358 20.2304 19.7079 19.8721 19.2715 19.4434C17.9886 18.2284 17.4388 18.0708 17.1182 18.0708C16.6829 18.0708 16.5527 18.192 16.5527 18.7988V20.7034C16.5527 21.226 16.3827 21.5294 15.0082 21.5294C12.7175 21.5294 10.2 20.1633 8.41324 17.6433C5.73306 13.9533 5 11.1632 5 10.6006C5 10.2857 5.12357 10 5.74136 10H7.90363C8.45624 10 8.66411 10.2376 8.87136 10.8257C9.92889 13.8515 11.712 16.4958 12.445 16.4958C12.7199 16.4958 12.846 16.3715 12.846 15.6858V12.5582C12.7963 11.6679 12.4797 11.2829 12.2452 10.9978C12.1004 10.8216 11.9869 10.6836 11.9869 10.4882C11.9869 10.2506 12.1935 10 12.5371 10H15.9349C16.3931 10 16.5454 10.2407 16.5454 10.7807V14.9883C16.5454 15.4383 16.7516 15.5958 16.8891 15.5958C17.164 15.5958 17.3931 15.4383 17.897 14.9432C19.4547 13.2332 20.5543 10.6006 20.5543 10.6006C20.6918 10.2857 20.9453 10 21.4951 10H23.6573Z" fill="#FF9900"/>
</svg>
